<?xml version="1.0" encoding="utf-8"?>
<!-- Generator: Adobe Illustrator 22.1.0, SVG Export Plug-In . SVG Version: 6.00 Build 0)  -->
<svg version="1.1" id="Layer_1" xmlns="http://www.w3.org/2000/svg" xmlns:xlink="http://www.w3.org/1999/xlink" x="0px" y="0px"
	 width="400px" height="500px" viewBox="0 0 400 500" style="enable-background:new 0 0 400 500;" xml:space="preserve">
<style type="text/css">
	.st0{fill:#222222;}
	.st1{fill:#777777;}
	.st2{fill:none;stroke:#000000;stroke-linecap:round;stroke-linejoin:round;stroke-miterlimit:10;}
	.st3{fill:#73C881;}
	.st4{fill:none;stroke:#73C881;stroke-width:2;stroke-miterlimit:10;}
	.st5{fill:#FFFFFF;stroke:#AAAAAA;stroke-width:0.9286;stroke-miterlimit:10;}
	.st6{fill:#FFFFFF;stroke:#4DA4F9;stroke-width:0.9286;stroke-miterlimit:10;}
	.st7{fill:#4DA4F9;}
	.st8{fill:none;stroke:#FFFFFF;stroke-width:2;stroke-linecap:square;stroke-miterlimit:10;}
	.st9{fill:none;stroke:#3C98DD;stroke-miterlimit:10;}
	.st10{fill:none;stroke:#FFFFFF;stroke-width:1.5;stroke-miterlimit:10;}
	.st11{fill:none;stroke:#FFFFFF;stroke-miterlimit:10;}
	.st12{fill:none;stroke:#FFFFFF;stroke-width:2;stroke-miterlimit:10;}
	.st13{fill:none;stroke:#777777;stroke-miterlimit:10;}
	.st14{fill:none;stroke:#000000;stroke-miterlimit:10;}
	.st15{fill:#DF5342;}
	.st16{fill:#FFFFFF;}
	.st17{fill:#FFA800;}
	.st18{fill:none;stroke:#4DA4F9;stroke-width:4;stroke-miterlimit:10;}
	.st19{fill:#555555;}
	.st20{fill:none;stroke:#333333;stroke-miterlimit:10;}
	.st21{fill:none;stroke:#000000;stroke-linecap:round;stroke-miterlimit:10;}
</style>
<polygon class="st0" points="25.7,1.7 25,1 19.8,5.8 15,1 14.3,1.7 19.1,6.5 14.3,11.3 15,12 19.8,7.2 25,12 25.7,11.3 20.5,6.5 "/>
<polygon class="st1" points="40,5 36,5 36,1 34,1 34,5 30,5 30,7 34,7 34,11 36,11 36,7 40,7 "/>
<g>
	<polyline class="st2" points="46.3,4.3 50.5,8.5 54.7,4.3 	"/>
</g>
<g>
	<path class="st3" d="M16,19.8c7.3,0,13.2,5.9,13.2,13.2S23.3,46.2,16,46.2S2.8,40.3,2.8,33S8.7,19.8,16,19.8 M16,18
		C7.7,18,1,24.7,1,33s6.7,15,15,15s15-6.7,15-15S24.3,18,16,18L16,18z"/>
</g>
<polyline class="st4" points="10,33 14,37 23,28 "/>
<path class="st5" d="M88.5,14.5h-11c-0.6,0-1-0.4-1-1v-11c0-0.6,0.4-1,1-1h11c0.6,0,1,0.4,1,1v11C89.5,14.1,89.1,14.5,88.5,14.5z"/>
<path class="st6" d="M71.5,14.5h-11c-0.6,0-1-0.4-1-1v-11c0-0.6,0.4-1,1-1h11c0.6,0,1,0.4,1,1v11C72.5,14.1,72.1,14.5,71.5,14.5z"/>
<path class="st7" d="M106,15H94c-0.6,0-1-0.4-1-1V2c0-0.6,0.4-1,1-1h12c0.6,0,1,0.4,1,1v12C107,14.6,106.6,15,106,15z"/>
<path class="st8" d="M97.5,8.3l1.6,1.6L103,6"/>
<line class="st9" x1="115.5" y1="3" x2="115.5" y2="14"/>
<line class="st9" x1="115.5" y1="3" x2="115.5" y2="14"/>
<line class="st9" x1="121" y1="8.5" x2="110" y2="8.5"/>
<line class="st9" x1="121" y1="8.5" x2="110" y2="8.5"/>
<circle class="st10" cx="175.9" cy="10" r="8.5"/>
<polyline class="st10" points="172,10 174.4,12.4 180,7.1 "/>
<circle class="st10" cx="201.9" cy="10" r="8.5"/>
<path class="st11" d="M140.2,17.7l9.3-16c0.2-0.4,0.7-0.4,0.9,0l9.3,16c0.2,0.4,0,0.7-0.5,0.7h-18.6C140.3,18.4,140,18.1,140.2,17.7
	z"/>
<line class="st12" x1="150" y1="8" x2="150" y2="13"/>
<line class="st12" x1="150" y1="14" x2="150" y2="16"/>
<line class="st10" x1="202" y1="5" x2="202" y2="12"/>
<line class="st10" x1="202" y1="13" x2="202" y2="15"/>
<circle class="st10" cx="227.9" cy="10" r="8.5"/>
<line class="st10" x1="228" y1="8" x2="228" y2="15"/>
<line class="st10" x1="228" y1="5" x2="228" y2="7"/>
<line class="st13" x1="132.7" y1="5.3" x2="126.3" y2="11.7"/>
<line class="st13" x1="132.7" y1="11.7" x2="126.3" y2="5.3"/>
<polyline class="st14" points="299.3,2.3 306.5,9.5 299.3,16.7 "/>
<polyline class="st14" points="280.7,16.7 273.5,9.5 280.7,2.3 "/>
<polyline class="st14" points="256.7,16.7 249.5,9.5 256.7,2.3 "/>
<polyline class="st14" points="251.7,16.7 244.5,9.5 251.7,2.3 "/>
<polyline class="st14" points="323.3,2.3 330.5,9.5 323.3,16.7 "/>
<polyline class="st14" points="328.3,2.3 335.5,9.5 328.3,16.7 "/>
<g>
	<path class="st15" d="M49,19c-8.3,0-15,6.7-15,15s6.7,15,15,15s15-6.7,15-15S57.3,19,49,19L49,19z"/>
</g>
<circle class="st16" cx="49" cy="34" r="13"/>
<path class="st15" d="M49.7,37h-1.3l-1.3-10c0-1.1,0.9-2,2-2l0,0c1.1,0,2,0.9,2,2L49.7,37z"/>
<circle class="st15" cx="49" cy="41" r="2"/>
<g>
	<path class="st17" d="M115,19.2c-8.3,0-15,6.7-15,15s6.7,15,15,15s15-6.7,15-15S123.3,19.2,115,19.2L115,19.2z"/>
</g>
<circle class="st16" cx="115" cy="34.2" r="13"/>
<path class="st17" d="M115.7,37.2h-1.3l-1.3-10c0-1.1,0.9-2,2-2l0,0c1.1,0,2,0.9,2,2L115.7,37.2z"/>
<circle class="st17" cx="115" cy="41.2" r="2"/>
<g>
	<path class="st7" d="M82,19c-8.3,0-15,6.7-15,15s6.7,15,15,15s15-6.7,15-15S90.3,19,82,19L82,19z"/>
</g>
<circle class="st16" cx="82" cy="34" r="13"/>
<circle class="st7" cx="82" cy="27" r="2"/>
<line class="st18" x1="82" y1="31" x2="82" y2="43"/>
<line class="st11" x1="349.5" y1="4" x2="349.5" y2="15"/>
<line class="st11" x1="349.5" y1="4" x2="349.5" y2="15"/>
<line class="st11" x1="355" y1="9.5" x2="344" y2="9.5"/>
<line class="st11" x1="355" y1="9.5" x2="344" y2="9.5"/>
<g>
	<path class="st7" d="M148,23c-8.3,0-15,6.7-15,15s6.7,15,15,15s15-6.7,15-15S156.3,23,148,23L148,23z"/>
</g>
<circle class="st16" cx="148" cy="38" r="13"/>
<path class="st7" d="M154.1,34.6C154.1,34.6,154.1,34.8,154.1,34.6c-0.2,1.8-1.1,2.8-2.5,3.7c-0.4,0.2-0.5,0.4-0.9,0.5
	c-0.7,0.5-1.4,1.2-1.4,2.3h-1.8c0-1.2,0.5-2.1,1.4-2.8c0.7-0.5,1.6-1.1,2.3-1.8c1.2-1.2,1.2-3,0-4c-0.5-0.5-1.2-0.7-2.3-0.7
	s-1.8,0.2-2.3,0.7s-0.9,1.1-1.1,1.9l-1.9-0.2c0.2-1.4,0.7-2.5,1.6-3.2s2.1-1.1,3.5-1.1c1.6,0,2.8,0.4,3.7,1.1
	C153.8,32,154.1,33.4,154.1,34.6z M149.8,45.8h-2.5v-2.5h2.5V45.8z"/>
<path class="st19" d="M373.4,12.9c1-1.1,1.6-2.6,1.6-4.3c0-3.6-2.9-6.6-6.5-6.6S362,4.9,362,8.6c0,3.6,2.9,6.6,6.5,6.6
	c1.6,0,3.1-0.6,4.2-1.6l4.2,4.3c0.1,0.1,0.2,0.1,0.4,0.1c0.1,0,0.3,0,0.4-0.1c0.2-0.2,0.2-0.5,0-0.7L373.4,12.9z M368.5,14.2
	c-3.1,0-5.5-2.5-5.5-5.6s2.5-5.6,5.5-5.6c3.1,0,5.5,2.5,5.5,5.6S371.5,14.2,368.5,14.2z"/>
<polyline class="st20" points="171.1,32.8 174.4,36.2 181,30 "/>
<rect x="1" y="5" class="st1" width="10" height="2"/>
<line class="st21" x1="394.5" y1="5.5" x2="386.5" y2="13.5"/>
<line class="st21" x1="394.5" y1="10.5" x2="391.5" y2="13.5"/>
<polyline class="st14" points="191.5,35.5 194.5,32.5 191.5,29.5 "/>
<g>
	<path class="st1" d="M215.5,25h-10c-0.8,0-1.5,0.7-1.5,1.5v10c0,0.8,0.7,1.5,1.5,1.5h10c0.8,0,1.5-0.7,1.5-1.5v-10
		C217,25.7,216.3,25,215.5,25z M216,36.5c0,0.3-0.2,0.5-0.5,0.5h-10c-0.3,0-0.5-0.2-0.5-0.5v-10c0-0.3,0.2-0.5,0.5-0.5h10
		c0.3,0,0.5,0.2,0.5,0.5V36.5z"/>
	<polygon class="st1" points="211,28 210,28 210,31 207,31 207,32 210,32 210,35 211,35 211,32 214,32 214,31 211,31 	"/>
</g>
<g>
	<path class="st1" d="M234.5,25h-10c-0.8,0-1.5,0.7-1.5,1.5v10c0,0.8,0.7,1.5,1.5,1.5h10c0.8,0,1.5-0.7,1.5-1.5v-10
		C236,25.7,235.3,25,234.5,25z M235,36.5c0,0.3-0.2,0.5-0.5,0.5h-10c-0.3,0-0.5-0.2-0.5-0.5v-10c0-0.3,0.2-0.5,0.5-0.5h10
		c0.3,0,0.5,0.2,0.5,0.5V36.5z"/>
	<rect x="226" y="31" class="st1" width="7" height="1"/>
</g>
<polygon class="st1" points="244,37 244,27 249,32 "/>
<g id="more_option_dots_white_1_">
	<path class="st16" d="M263.7,31.3c-1.1,0-2,0.9-2,2s0.9,2,2,2c1.1,0,2-0.9,2-2S264.9,31.3,263.7,31.3z M269.7,31.3
		c-1.1,0-2,0.9-2,2s0.9,2,2,2c1.1,0,2-0.9,2-2S270.9,31.3,269.7,31.3z M275.7,31.3c-1.1,0-2,0.9-2,2s0.9,2,2,2c1.1,0,2-0.9,2-2
		S276.9,31.3,275.7,31.3z"/>
</g>
<g id="more_option_dots_white_2_">
	<path d="M294.7,31.3c-1.1,0-2,0.9-2,2s0.9,2,2,2c1.1,0,2-0.9,2-2S295.9,31.3,294.7,31.3z M300.7,31.3c-1.1,0-2,0.9-2,2s0.9,2,2,2
		c1.1,0,2-0.9,2-2S301.9,31.3,300.7,31.3z M306.7,31.3c-1.1,0-2,0.9-2,2s0.9,2,2,2c1.1,0,2-0.9,2-2S307.9,31.3,306.7,31.3z"/>
</g>
</svg>
