<?xml version="1.0" encoding="utf-8"?>
<!-- Generator: Adobe Illustrator 22.1.0, SVG Export Plug-In . SVG Version: 6.00 Build 0)  -->
<svg version="1.1" id="Layer_1" xmlns="http://www.w3.org/2000/svg" xmlns:xlink="http://www.w3.org/1999/xlink" x="0px" y="0px"
	 width="400px" height="320px" viewBox="0 0 400 320" style="enable-background:new 0 0 400 320;" xml:space="preserve">
<style type="text/css">
	.st0{display:none;fill:#507DAA;}
	.st1{fill:#FFFFFF;}
	.st2{fill:none;stroke:#FFFFFF;stroke-linecap:round;stroke-linejoin:round;stroke-miterlimit:10;}
	.st3{fill:none;stroke:#2C7BD0;stroke-linecap:round;stroke-linejoin:round;stroke-miterlimit:10;}
	.st4{fill:none;stroke:#FFFFFF;stroke-miterlimit:10;}
	.st5{fill:none;stroke:#FFFFFF;stroke-width:2;stroke-miterlimit:10;}
	.st6{fill:none;stroke:#F74D4D;stroke-miterlimit:10;}
	.st7{fill:none;stroke:#F74D4D;stroke-width:2;stroke-miterlimit:10;}
	.st8{fill:none;stroke:#000000;stroke-width:2;stroke-miterlimit:10;}
	.st9{fill:none;stroke:#000000;stroke-miterlimit:10;}
	.st10{fill:none;stroke:#FFFFFF;stroke-width:1.2;stroke-miterlimit:10;}
	.st11{fill:none;stroke:#4190F2;stroke-miterlimit:10;}
	.st12{fill:#5BA1E5;}
	.st13{fill:none;stroke:#E34A4A;stroke-miterlimit:10;}
	.st14{fill:#FFFFFF;stroke:#AAAAAA;stroke-width:0.9286;stroke-miterlimit:10;}
	.st15{fill:#FFFFFF;stroke:#4DA4F9;stroke-width:0.9286;stroke-miterlimit:10;}
	.st16{fill:#4DA4F9;}
	.st17{fill:none;stroke:#FFFFFF;stroke-width:1.2404;stroke-linecap:square;stroke-miterlimit:10;}
	.st18{fill:none;stroke:#4892A3;stroke-miterlimit:10;}
	.st19{fill:none;stroke:#4892A3;stroke-width:2;stroke-miterlimit:10;}
	.st20{fill:none;stroke:#ED8220;stroke-miterlimit:10;}
	.st21{fill:none;stroke:#68AD68;stroke-miterlimit:10;}
	.st22{fill:none;stroke:#ED8220;stroke-width:2;stroke-miterlimit:10;}
	.st23{fill:none;stroke:#EE4242;stroke-width:0.9067;stroke-miterlimit:10;}
	.st24{fill:#E34A4A;}
	.st25{fill:none;stroke:#FFFFFF;stroke-width:0.9067;stroke-miterlimit:10;}
	.st26{fill:#494949;stroke:#FFFFFF;stroke-miterlimit:10;}
	.st27{fill:none;stroke:#4190F2;stroke-linecap:round;stroke-linejoin:round;stroke-miterlimit:10;}
	.st28{fill:none;stroke:#FFFFFF;stroke-width:1.2;stroke-linecap:round;stroke-miterlimit:10;}
	.st29{fill:none;stroke:#FFFFFF;stroke-linecap:round;stroke-miterlimit:10;}
	.st30{fill:none;stroke:#000000;stroke-width:1.5;stroke-miterlimit:10;}
	.st31{fill:none;stroke:#929292;stroke-miterlimit:10;}
	.st32{fill:none;stroke:#929292;stroke-linecap:round;stroke-miterlimit:10;}
	.st33{fill:none;stroke:#FFFFFF;stroke-linecap:square;stroke-miterlimit:10;}
	.st34{fill:none;stroke:#FFFFFF;stroke-width:0.7;stroke-miterlimit:10;}
	.st35{fill:none;stroke:#FFFFFF;stroke-width:0.6;stroke-miterlimit:10;}
	.st36{fill:none;stroke:#111111;stroke-width:0.6;stroke-miterlimit:10;}
	.st37{fill:none;stroke:#FFFFFF;stroke-width:0.9286;stroke-miterlimit:10;}
	.st38{fill:#F8F8F8;stroke:#EAEAEA;stroke-miterlimit:10;}
	.st39{fill:none;stroke:#000000;stroke-width:1.2;stroke-miterlimit:10;}
	.st40{fill:none;stroke:#000000;stroke-linecap:round;stroke-linejoin:round;stroke-miterlimit:10;}
	.st41{fill:#73C881;}
	.st42{fill:none;stroke:#73C881;stroke-width:2;stroke-miterlimit:10;}
	.st43{fill:#DF5342;}
	.st44{fill:#FFA800;}
	.st45{fill:none;stroke:#4DA4F9;stroke-width:4;stroke-miterlimit:10;}
</style>
<rect x="-4.5" y="-3.5" class="st0" width="408.5" height="326.5"/>
<polygon class="st1" points="1,2 9,2 5,6 "/>
<g>
	<polyline class="st2" points="14.5,2.5 18.5,6.5 22.5,2.5 	"/>
</g>
<g>
	<polyline class="st3" points="28.5,2.5 32.5,6.5 36.5,2.5 	"/>
</g>
<g>
	<polyline class="st2" points="43.5,9.5 47.5,5.5 43.5,1.5 	"/>
</g>
<polygon class="st1" points="62,2.5 61.6,2 57.9,5.5 54.5,2 54,2.5 57.4,6 54,9.5 54.5,10 57.9,6.5 61.6,10 62,9.5 58.4,6 "/>
<circle class="st4" cx="76" cy="10" r="7.5"/>
<line class="st5" x1="76" y1="8" x2="76" y2="14"/>
<ellipse class="st1" cx="76" cy="6" rx="1" ry="1"/>
<circle class="st6" cx="99" cy="9" r="6.5"/>
<line class="st7" x1="99" y1="5" x2="99" y2="10"/>
<line class="st7" x1="99" y1="11" x2="99" y2="13"/>
<circle class="st8" cx="126.5" cy="15.5" r="12.5"/>
<line class="st9" x1="126.5" y1="11" x2="126.5" y2="20"/>
<line class="st9" x1="131" y1="15.5" x2="122" y2="15.5"/>
<circle class="st8" cx="156.5" cy="15.5" r="12.5"/>
<line class="st9" x1="161" y1="15.5" x2="152" y2="15.5"/>
<path class="st1" d="M190.7,14.3c0.9-1,1.5-2.4,1.5-4c0-3.3-2.7-6.1-6.1-6.1s-6.1,2.7-6.1,6.1c0,3.3,2.7,6.1,6.1,6.1
	c1.5,0,2.9-0.6,3.9-1.5l3.9,4c0.1,0.1,0.2,0.1,0.4,0.1c0.1,0,0.3,0,0.4-0.1c0.2-0.2,0.2-0.5,0-0.6L190.7,14.3z M186.1,15.5
	c-2.9,0-5.1-2.3-5.1-5.2s2.3-5.2,5.1-5.2c2.9,0,5.1,2.3,5.1,5.2S188.9,15.5,186.1,15.5z"/>
<path class="st1" d="M209.9,12.5c0.7-0.8,1.1-1.8,1.1-3c0-2.5-2-4.5-4.5-4.5S202,7,202,9.5s2,4.5,4.5,4.5c1.1,0,2.2-0.4,2.9-1.1
	l2.9,3c0.1,0.1,0.1,0.1,0.3,0.1c0.1,0,0.2,0,0.3-0.1s0.1-0.3,0-0.5L209.9,12.5z M206.5,13.4c-2.2,0-3.8-1.7-3.8-3.9s1.7-3.8,3.8-3.8
	c2.2,0,3.8,1.7,3.8,3.8S208.6,13.4,206.5,13.4z"/>
<polygon class="st1" points="9.3,15.2 9,14.8 6,17.7 3.2,14.8 2.8,15.2 5.6,18 2.8,20.9 3.2,21.3 6,18.5 9,21.3 9.3,20.9 6.4,18 "/>
<polyline class="st5" points="16.7,17.1 20,20.5 26.4,14.1 "/>
<polyline class="st10" points="33.4,17.4 36.5,20.5 41.7,15.3 "/>
<polyline class="st10" points="51.3,18.3 53.5,20.5 57.7,16.3 "/>
<g>
	<polyline class="st5" points="2,34.5 6,38.5 15,29.5 	"/>
</g>
<polyline class="st9" points="22.3,33.3 25.5,36.5 31.6,30.4 "/>
<g>
	<polyline class="st2" points="41.5,43.5 48.5,36.5 41.5,29.5 	"/>
</g>
<g>
	<polyline class="st2" points="65.5,29.5 58.5,36.5 65.5,43.5 	"/>
</g>
<polyline class="st4" points="83.6,26.5 80.6,29.5 83.6,32.5 "/>
<polyline class="st4" points="97.5,32.5 100.5,29.5 97.5,26.5 "/>
<polyline class="st9" points="159.6,38.5 156.6,41.5 159.6,44.5 "/>
<polyline class="st9" points="173.5,44.5 176.5,41.5 173.5,38.5 "/>
<polyline class="st4" points="113.5,40.5 116.5,43.5 119.5,40.5 "/>
<polyline class="st4" points="140.5,43.5 137.5,40.5 134.5,43.5 "/>
<polyline class="st11" points="84.5,41.5 81.5,44.5 84.5,47.5 "/>
<polyline class="st11" points="98.5,47.5 101.5,44.5 98.5,41.5 "/>
<path class="st1" d="M29,63h-4v-4h-1v4h-4v1h4v4h1v-4h4V63z"/>
<path d="M46,63h-4v-4h-1v4h-4v1h4v4h1v-4h4V63z"/>
<path class="st1" d="M64,63h-5v-5h-1v5h-5v1h5v5h1v-5h5V63z"/>
<path d="M84,63h-5v-5h-1v5h-5v1h5v5h1v-5h5V63z"/>
<polygon class="st1" points="12,62 8,62 8,58 6,58 6,62 2,62 2,64 6,64 6,68 8,68 8,64 12,64 "/>
<g>
	<path class="st1" d="M123.7,58.4c0-0.1-0.1-0.1-0.2-0.1s-0.1,0-0.2,0.1c-0.2,0.3-0.6,0.4-0.9,0.6c-0.3,0.1-0.6,0.2-0.9,0.4
		c-0.5,0.3-0.7,0.8-0.6,1.2l0,0c-0.2-0.3-0.4-0.5-0.6-0.8c-1.1-1.1-2.6-1.7-4.1-1.8c-0.1,0-0.1,0-0.2,0c-1.7,0-3.4,0.7-4.5,2
		s-1.6,3-1.4,4.6c0,0.1,0,0.3,0.1,0.4c0.4,1.8,1.5,3.2,3,3.7c0.4,0.1,0.7,0.2,1.1,0.2c0.9,0,1.7-0.5,2.1-1.3
		c0.2-0.3,0.3-0.6,0.3-0.9c0-0.2,0-0.4,0-0.6s0-0.4,0-0.5c0.1-0.4,0.4-0.6,0.8-0.6c0.1,0,0.2,0,0.4,0.1c-0.1,0.3-0.3,0.5-0.4,0.7
		c-0.2,0.5-0.4,0.9-0.5,1.2c-0.1,0.2-0.2,0.7,0.2,0.9c0.1,0.1,0.3,0.1,0.4,0.1s0.5-0.1,1.7-1.3c0.3-0.3,0.6-0.7,1-1.2
		c0.9-0.3,1.6-1,1.7-1.8c0-0.2,0.1-0.4,0.1-0.7c0.3-0.5,0.6-1,0.9-1.4l0,0c0.4-0.1,0.8-0.4,1-0.9C124.1,60.1,124.1,59.2,123.7,58.4z
		 M119,61.4c-0.2,0.2-0.4,0.4-0.7,0.4c-0.2,0-0.3,0-0.4-0.1c-0.2-0.1-0.3-0.3-0.4-0.5c0-0.2,0-0.4,0.1-0.6c0.2-0.2,0.4-0.4,0.7-0.4
		c0.2,0,0.3,0,0.4,0.1c0.2,0.1,0.3,0.3,0.4,0.5C119.1,61,119.1,61.3,119,61.4z M120,62.9c0.4-0.6,0.9-1.2,1.3-1.7
		c0.1,0.1,0.1,0.1,0.2,0.2c0.1,0.1,0.3,0.2,0.4,0.2c-0.4,0.6-0.7,1.2-1.2,1.8c-0.8,1.1-1.6,2.1-2.2,2.8c-0.4,0.4-0.7,0.7-1,0.9
		c0.1-0.3,0.3-0.7,0.5-1.2C118.6,65.1,119.3,64,120,62.9z M112.7,62.9c-0.2,0-0.3,0-0.4-0.1c-0.2-0.1-0.3-0.3-0.4-0.5
		c0-0.2,0-0.4,0.1-0.6c0.2-0.2,0.4-0.4,0.7-0.4c0.2,0,0.3,0,0.4,0.1c0.4,0.2,0.5,0.7,0.3,1.1C113.2,62.7,113,62.9,112.7,62.9z
		 M111.8,64.7c0.2-0.2,0.4-0.4,0.7-0.4c0.2,0,0.3,0,0.4,0.1c0.2,0.1,0.3,0.3,0.4,0.5c0,0.2,0,0.4-0.1,0.6c-0.2,0.2-0.4,0.4-0.7,0.4
		c-0.2,0-0.3,0-0.4-0.1c-0.2-0.1-0.3-0.3-0.4-0.5C111.7,65,111.7,64.8,111.8,64.7z M114.5,59.9c0.2-0.2,0.4-0.4,0.7-0.4
		c0.2,0,0.3,0,0.4,0.1c0.4,0.2,0.5,0.7,0.3,1.1c-0.2,0.2-0.4,0.4-0.7,0.4c-0.2,0-0.3,0-0.4-0.1c-0.2-0.1-0.3-0.3-0.4-0.5
		S114.4,60.1,114.5,59.9z"/>
</g>
<rect x="134" y="59" class="st1" width="11" height="1"/>
<rect x="134" y="62" class="st1" width="11" height="1"/>
<rect x="134" y="65" class="st1" width="11" height="1"/>
<path class="st12" d="M102,63h-4v-4h-1v4h-4v1h4v4h1v-4h4V63z"/>
<rect x="188.5" y="42.5" class="st4" width="8" height="8"/>
<rect x="187.5" y="40.5" class="st4" width="10" height="2"/>
<rect x="190.5" y="38.5" class="st4" width="4" height="2"/>
<rect x="210.5" y="42.5" class="st13" width="8" height="8"/>
<rect x="209.5" y="40.5" class="st13" width="10" height="2"/>
<rect x="212.5" y="38.5" class="st13" width="4" height="2"/>
<rect x="229.6" y="41.4" transform="matrix(0.7071 -0.7071 0.7071 0.7071 37.9393 178.5909)" class="st4" width="9.9" height="4.2"/>
<path class="st1" d="M228,50h3.5c0.2,0,0.3-0.2,0.1-0.3l-3.3-3.3c-0.1-0.1-0.3,0-0.3,0.1V50z"/>
<circle class="st1" cx="295.5" cy="5.5" r="1.5"/>
<circle class="st1" cx="295.5" cy="10.5" r="1.5"/>
<circle class="st1" cx="295.5" cy="15.5" r="1.5"/>
<path class="st1" d="M315.1,19.2V8.8L308,2h20.1l-8,7v6.7L315.1,19.2z M310.1,2.9l6,5.4v8.9l3-2.1V8.5l7-5.6h-15.7H310.1L310.1,2.9z
	"/>
<path class="st14" d="M347.5,17.5h-11c-0.6,0-1-0.4-1-1v-11c0-0.6,0.4-1,1-1h11c0.6,0,1,0.4,1,1v11
	C348.5,17.1,348.1,17.5,347.5,17.5z"/>
<path class="st15" d="M371.5,17.5h-11c-0.6,0-1-0.4-1-1v-11c0-0.6,0.4-1,1-1h11c0.6,0,1,0.4,1,1v11
	C372.5,17.1,372.1,17.5,371.5,17.5z"/>
<path class="st16" d="M397,18h-12c-0.6,0-1-0.4-1-1V5c0-0.6,0.4-1,1-1h12c0.6,0,1,0.4,1,1v12C398,17.6,397.6,18,397,18z"/>
<path class="st17" d="M387.3,11.2l2.2,2.2l5.4-5.3"/>
<circle class="st18" cx="387.9" cy="38" r="9.5"/>
<line class="st19" x1="388" y1="36" x2="388" y2="44"/>
<line class="st19" x1="388" y1="33" x2="388" y2="35"/>
<circle class="st20" cx="357.9" cy="38" r="9.5"/>
<circle class="st21" cx="297.9" cy="38" r="9.5"/>
<line class="st22" x1="358" y1="41" x2="358" y2="33"/>
<line class="st22" x1="358" y1="44" x2="358" y2="42"/>
<circle class="st4" cx="387.9" cy="68" r="9.5"/>
<line class="st5" x1="388" y1="66" x2="388" y2="74"/>
<line class="st5" x1="388" y1="63" x2="388" y2="65"/>
<circle class="st4" cx="357.9" cy="68" r="9.5"/>
<line class="st5" x1="358" y1="71" x2="358" y2="63"/>
<line class="st5" x1="358" y1="74" x2="358" y2="72"/>
<polyline class="st21" points="293.4,37.4 296.5,40.5 302.6,34.4 "/>
<circle class="st4" cx="297.9" cy="68" r="9.5"/>
<polyline class="st4" points="293.4,67.4 296.5,70.5 302.6,64.4 "/>
<path class="st23" d="M316.6,46.7l10.7-17.2c0.3-0.5,0.8-0.5,1,0L339,46.7c0.3,0.5,0,0.8-0.5,0.8H317
	C316.7,47.5,316.3,47.1,316.6,46.7z"/>
<g>
	<rect x="327" y="35" class="st24" width="2" height="7"/>
</g>
<g>
	<rect x="327" y="43" class="st24" width="2" height="2"/>
</g>
<path class="st25" d="M317.6,77.7l10.7-17.2c0.3-0.5,0.8-0.5,1,0L340,77.7c0.3,0.5,0,0.8-0.5,0.8H318
	C317.7,78.5,317.3,78.1,317.6,77.7z"/>
<g>
	<rect x="328" y="66" class="st1" width="2" height="7"/>
</g>
<g>
	<rect x="328" y="74" class="st1" width="2" height="2"/>
</g>
<circle class="st26" cx="48.5" cy="84.5" r="5"/>
<line class="st4" x1="45.5" y1="88.5" x2="51.4" y2="80.4"/>
<g>
	<polyline class="st27" points="4.7,91.4 11.7,84.4 4.7,77.4 	"/>
</g>
<g>
	<polyline class="st27" points="28.7,77.4 21.7,84.4 28.7,91.4 	"/>
</g>
<path class="st4" d="M15.5,122.5h-12c-0.6,0-1-0.4-1-1v-12c0-0.6,0.4-1,1-1h12c0.6,0,1,0.4,1,1v12C16.5,122.1,16.1,122.5,15.5,122.5
	z"/>
<line class="st4" x1="5" y1="115.5" x2="14" y2="115.5"/>
<line class="st4" x1="9.5" y1="111" x2="9.5" y2="120"/>
<path class="st4" d="M39.5,122.5h-12c-0.6,0-1-0.4-1-1v-12c0-0.6,0.4-1,1-1h12c0.6,0,1,0.4,1,1v12C40.5,122.1,40.1,122.5,39.5,122.5
	z"/>
<line class="st4" x1="29" y1="115.5" x2="38" y2="115.5"/>
<line class="st28" x1="69.1" y1="111" x2="60.2" y2="119.9"/>
<line class="st28" x1="60.2" y1="111" x2="69.1" y2="119.9"/>
<circle class="st29" cx="64.8" cy="115.3" r="14"/>
<polyline class="st30" points="101.7,119.4 95.7,114.4 101.7,109.4 "/>
<polyline class="st30" points="115.6,119 121.6,114 115.6,109 "/>
<circle class="st31" cx="137.5" cy="113.5" r="5"/>
<line class="st32" x1="139.5" y1="113.5" x2="135.5" y2="113.5"/>
<line class="st32" x1="140.5" y1="117.5" x2="144.6" y2="121.6"/>
<circle class="st4" cx="158.5" cy="113.5" r="5"/>
<line class="st29" x1="160.5" y1="113.5" x2="156.5" y2="113.5"/>
<line class="st29" x1="161.2" y1="117.5" x2="165.4" y2="121.6"/>
<circle class="st32" cx="180.5" cy="113.5" r="5"/>
<line class="st32" x1="182.5" y1="113.5" x2="178.5" y2="113.5"/>
<line class="st32" x1="180.5" y1="111.5" x2="180.5" y2="115.5"/>
<line class="st32" x1="183.9" y1="117.3" x2="188" y2="121.3"/>
<circle class="st4" cx="200.5" cy="113.5" r="5"/>
<line class="st29" x1="202.5" y1="113.5" x2="198.5" y2="113.5"/>
<line class="st29" x1="200.5" y1="111.5" x2="200.5" y2="115.5"/>
<line class="st29" x1="203.7" y1="117" x2="207.8" y2="121.1"/>
<path class="st32" d="M223.5,122.5h-2c-1.6,0-3-1.3-3-3v-2"/>
<path class="st32" d="M233.5,117.5v2c0,1.6-1.3,3-3,3h-2"/>
<path class="st32" d="M228.5,107.5h2c1.7,0,3,1.3,3,3v2"/>
<path class="st32" d="M218.5,112.5v-2c0-1.7,1.4-3,3-3h2"/>
<path class="st33" d="M247.5,122.5h-2c-1.6,0-3-1.3-3-3v-2"/>
<path class="st33" d="M257.5,117.5v2c0,1.7-1.4,3-3,3h-2"/>
<path class="st33" d="M252.5,107.5h2c1.7,0,3,1.4,3,3v2"/>
<path class="st33" d="M242.5,112.5v-2c0-1.7,1.4-3,3-3h2"/>
<path class="st1" d="M283,114h-3v-8h-2v8h-3l4,4L283,114z M285,116v3h-12v-3h-2v5h16v-5H285z"/>
<line class="st34" x1="302" y1="114.2" x2="297" y2="119.2"/>
<line class="st34" x1="297" y1="114.2" x2="302" y2="119.2"/>
<line class="st35" x1="309" y1="116.5" x2="321" y2="116.5"/>
<line class="st4" x1="336.4" y1="110" x2="325.4" y2="121"/>
<line class="st4" x1="325.4" y1="110" x2="336.4" y2="121"/>
<line class="st35" x1="348" y1="115.5" x2="361" y2="115.5"/>
<circle class="st1" cx="354.5" cy="110.3" r="1.5"/>
<circle class="st1" cx="354.5" cy="120.3" r="1.5"/>
<polyline class="st36" points="374.2,119.9 379.6,124.3 384.2,107.6 393.4,107.6 "/>
<g>
	<polyline class="st2" points="36.7,136 31.3,141.4 36.7,146.8 	"/>
</g>
<g>
	<polyline class="st2" points="40.6,136 35.2,141.4 40.6,146.8 	"/>
</g>
<g>
	<polyline class="st2" points="17.8,146.9 23.2,141.4 17.8,136 	"/>
</g>
<g>
	<polyline class="st2" points="13.9,146.9 19.3,141.4 13.9,136 	"/>
</g>
<g>
	<polyline class="st27" points="76.7,135.9 71.3,141.3 76.7,146.7 	"/>
</g>
<g>
	<polyline class="st27" points="80.6,135.9 75.2,141.3 80.6,146.7 	"/>
</g>
<g>
	<polyline class="st27" points="57.8,146.8 63.2,141.3 57.8,135.9 	"/>
</g>
<g>
	<polyline class="st27" points="53.9,146.8 59.3,141.3 53.9,135.9 	"/>
</g>
<polyline class="st9" points="104.8,134.9 99.3,140.4 104.8,145.9 "/>
<line class="st9" x1="100" y1="140.5" x2="114" y2="140.5"/>
<g id="check_x2C__box_x2C__select_x2C__tick_2_">
	<polygon class="st1" points="20.4,162.2 19.7,161.5 11.2,169.9 8.8,167.5 8.1,168.2 11.2,171.4 11.9,170.7 12,170.6 	"/>
</g>
<path class="st37" d="M17.5,168v5.5c0,0.6-0.4,1-1,1h-11c-0.6,0-1-0.4-1-1v-11c0-0.6,0.4-1,1-1H16"/>
<path class="st14" d="M43.5,174.5h-11c-0.6,0-1-0.4-1-1v-11c0-0.6,0.4-1,1-1h11c0.6,0,1,0.4,1,1v11
	C44.5,174.1,44.1,174.5,43.5,174.5z"/>
<path class="st37" d="M96.5,174.5h-11c-0.6,0-1-0.4-1-1v-11c0-0.6,0.4-1,1-1h11c0.6,0,1,0.4,1,1v11
	C97.5,174.1,97.1,174.5,96.5,174.5z"/>
<path class="st38" d="M69.5,174.5h-11c-0.6,0-1-0.4-1-1v-11c0-0.6,0.4-1,1-1h11c0.6,0,1,0.4,1,1v11
	C70.5,174.1,70.1,174.5,69.5,174.5z"/>
<line class="st39" x1="129.5" y1="137" x2="129.5" y2="144"/>
<line class="st39" x1="134.5" y1="137" x2="134.5" y2="144"/>
<line class="st39" x1="127" y1="136.5" x2="137" y2="136.5"/>
<line class="st4" x1="141" y1="138.5" x2="152" y2="138.5"/>
<line class="st4" x1="146.5" y1="133" x2="146.5" y2="144"/>
<g>
	<polyline class="st40" points="163.5,143.5 167.5,139.5 163.5,135.5 	"/>
</g>
<g>
	<g>
		<path class="st41" d="M125.2,156.7c6.3,0,11.4,5.1,11.4,11.4c0,6.3-5.1,11.4-11.4,11.4c-6.3,0-11.4-5.1-11.4-11.4
			S118.9,156.7,125.2,156.7 M125.2,155.1c-7.2,0-13,5.8-13,13s5.8,13,13,13s13-5.8,13-13S132.4,155.1,125.2,155.1L125.2,155.1z"/>
	</g>
	<polyline class="st42" points="120.1,168.1 123.5,171.6 131.3,163.8 	"/>
</g>
<g>
	<g>
		<path class="st43" d="M165.2,155.1c-7.2,0-13,5.8-13,13s5.8,13,13,13s13-5.8,13-13S172.4,155.1,165.2,155.1L165.2,155.1z"/>
	</g>
	<circle class="st1" cx="165.2" cy="168.1" r="11.3"/>
	<path class="st43" d="M165.9,171h-1.1l-1.1-8.7c0-1,0.8-1.7,1.7-1.7l0,0c1,0,1.7,0.8,1.7,1.7L165.9,171z"/>
	<circle class="st43" cx="165.2" cy="174.2" r="1.7"/>
</g>
<g>
	<g>
		<path class="st44" d="M244.2,155.1c-7.2,0-13,5.8-13,13s5.8,13,13,13s13-5.8,13-13S251.4,155.1,244.2,155.1L244.2,155.1z"/>
	</g>
	<circle class="st1" cx="244.2" cy="168.1" r="11.3"/>
	<path class="st44" d="M244.9,171h-1.1l-1.1-8.7c0-1,0.8-1.7,1.7-1.7l0,0c1,0,1.7,0.8,1.7,1.7L244.9,171z"/>
	<circle class="st44" cx="244.2" cy="174.2" r="1.7"/>
</g>
<g>
	<path class="st16" d="M204.2,155.1c-7.2,0-13,5.8-13,13s5.8,13,13,13s13-5.8,13-13S211.4,155.1,204.2,155.1L204.2,155.1z"/>
</g>
<circle class="st1" cx="204.2" cy="168.1" r="11.3"/>
<circle class="st16" cx="204.2" cy="162.1" r="1.7"/>
<line class="st45" x1="204.2" y1="165.5" x2="204.2" y2="175.9"/>
<g>
	<g>
		<path class="st16" d="M284.2,155.1c-7.2,0-13,5.8-13,13s5.8,13,13,13s13-5.8,13-13S291.4,155.1,284.2,155.1L284.2,155.1z"/>
	</g>
	<circle class="st1" cx="284.2" cy="168.1" r="11.3"/>
	<path class="st16" d="M290,165.4C290,165.4,290,165.5,290,165.4c-0.2,1.6-1,2.4-2.2,3.2c-0.3,0.2-0.4,0.3-0.8,0.4
		c-0.6,0.4-1.2,1-1.2,2h-1.6c0-1,0.4-1.8,1.2-2.4c0.6-0.4,1.4-1,2-1.6c1-1,1-2.6,0-3.5c-0.4-0.4-1-0.6-2-0.6s-1.6,0.2-2,0.6
		c-0.4,0.4-0.8,1-1,1.6l-1.6-0.2c0.2-1.2,0.6-2.2,1.4-2.8s1.8-1,3-1c1.4,0,2.4,0.3,3.2,1C289.7,163.1,290,164.3,290,165.4z M286,175
		h-2v-2h2V175z"/>
</g>
<g id="more_option_dots_white_1_">
	<path class="st1" d="M312.7,166.7c-1.1,0-2,0.9-2,2s0.9,2,2,2c1.1,0,2-0.9,2-2S313.9,166.7,312.7,166.7z M318.7,166.7
		c-1.1,0-2,0.9-2,2s0.9,2,2,2c1.1,0,2-0.9,2-2S319.9,166.7,318.7,166.7z M324.7,166.7c-1.1,0-2,0.9-2,2s0.9,2,2,2c1.1,0,2-0.9,2-2
		S325.9,166.7,324.7,166.7z"/>
</g>
</svg>
